<svg width="256" height="256" viewBox="0 0 256 256" fill="none" xmlns="http://www.w3.org/2000/svg">
<g clip-path="url(#clip0_318_2)">
<path d="M254.018 19.788C252.68 19.0045 251.01 19.0625 249.73 19.937L2.57273 188.828C0.182728 190.461 -0.666274 193.551 0.554229 196.176C1.77373 198.8 4.68424 200.143 7.47374 199.369L71.0129 181.719L116.354 235.304C116.757 235.794 117.282 236.194 117.902 236.452C118.404 236.662 118.928 236.762 119.445 236.762C119.762 236.762 120.076 236.724 120.382 236.651C120.562 236.608 120.737 236.553 120.908 236.486C120.909 236.485 120.911 236.485 120.914 236.484C121.674 236.186 122.346 235.655 122.815 234.928C122.816 234.926 122.817 234.924 122.819 234.922L122.819 234.921C122.82 234.919 122.821 234.918 122.822 234.916C122.823 234.915 122.824 234.913 122.824 234.913C122.824 234.912 122.825 234.911 122.826 234.91C122.826 234.909 122.827 234.907 122.828 234.906C122.828 234.906 122.829 234.904 122.829 234.903C122.831 234.901 122.832 234.899 122.834 234.897L151.973 188.838L226.114 216.641C229.062 217.747 232.281 217.418 234.947 215.742C237.612 214.065 239.3 211.304 239.579 208.168L255.984 23.601C256.122 22.057 255.356 20.572 254.018 19.788ZM70.4829 173.547L17.6808 188.214L194.066 67.6845L70.4829 173.547ZM128.531 175.733L128.53 175.734C128.523 175.753 128.516 175.771 128.51 175.789C128.443 175.969 128.391 176.151 128.352 176.333L117.339 224.058L78.0479 177.622L223.899 52.684L129.164 174.637C128.904 174.957 128.689 175.322 128.533 175.727C128.532 175.729 128.531 175.731 128.531 175.733ZM128.646 210.715L135.15 182.53L144.306 185.963L128.646 210.715ZM231.594 207.458C231.518 208.308 230.987 208.762 230.677 208.957C230.367 209.152 229.729 209.435 228.93 209.135L138.78 175.329L246.811 36.2575L231.594 207.458Z" fill="black"/>
</g>
<defs>
<clipPath id="clip0_318_2">
<rect width="256" height="256" fill="white"/>
</clipPath>
</defs>
</svg>
